{
  "accessors": [
    {
      "bufferView": 2,
      "componentType": 5126,
      "count": 484,
      "max": [
        0.4749791622161865,
        1.0,
        0.0702940821647644
      ],
      "min": [
        -0.46401745080947876,
        -1.0,
        0.0
      ],
      "type": "VEC3"
    },
    {
      "bufferView": 2,
      "byteOffset": 5808,
      "componentType": 5126,
      "count": 484,
      "max": [
        1.0,
        1.0,
        1.0
      ],
      "min": [
        -1.0,
        -1.0,
        -1.0
      ],
      "type": "VEC3"
    },
    {
      "bufferView": 1,
      "componentType": 5126,
      "count": 484,
      "max": [
        1.0,
        1.0
      ],
      "min": [
        0.0,
        0.0
      ],
      "type": "VEC2"
    },
    {
      "bufferView": 0,
      "componentType": 5125,
      "count": 816,
      "type": "SCALAR"
    },
    {
      "bufferView": 2,
      "byteOffset": 11616,
      "componentType": 5126,
      "count": 20,
      "max": [
        0.44266048073768616,
        0.9540931582450867,
        0.067121721804142
      ],
      "min": [
        -0.44266048073768616,
        -0.978643000125885,
        0.067121721804142
      ],
      "type": "VEC3"
    },
    {
      "bufferView": 2,
      "byteOffset": 11856,
      "componentType": 5126,
      "count": 20,
      "max": [
        -4.358663652226369e-09,
        0.0,
        1.0
      ],
      "min": [
        -4.358663652226369e-09,
        0.0,
        1.0
      ],
      "type": "VEC3"
    },
    {
      "bufferView": 1,
      "byteOffset": 3872,
      "componentType": 5126,
      "count": 20,
      "max": [
        0.9786504507064819,
        0.9900954961776733
      ],
      "min": [
        0.02134953998029232,
        0.00990445539355278
      ],
      "type": "VEC2"
    },
    {
      "bufferView": 0,
      "byteOffset": 3264,
      "componentType": 5125,
      "count": 54,
      "type": "SCALAR"
    },
    {
      "bufferView": 2,
      "byteOffset": 12096,
      "componentType": 5126,
      "count": 800,
      "max": [
        0.409160852432251,
        0.9944619536399841,
        0.06576038897037506
      ],
      "min": [
        -0.017415234819054604,
        0.356006383895874,
        -0.015032998286187649
      ],
      "type": "VEC3"
    },
    {
      "bufferView": 2,
      "byteOffset": 21696,
      "componentType": 5126,
      "count": 800,
      "max": [
        0.9951847791671753,
        0.9951849579811096,
        1.0
      ],
      "min": [
        -0.9951848983764648,
        -0.9951849579811096,
        -1.0
      ],
      "type": "VEC3"
    },
    {
      "bufferView": 1,
      "byteOffset": 4032,
      "componentType": 5126,
      "count": 800,
      "max": [
        1.0,
        1.0
      ],
      "min": [
        0.0,
        0.01000000536441803
      ],
      "type": "VEC2"
    },
    {
      "bufferView": 0,
      "byteOffset": 3480,
      "componentType": 5125,
      "count": 1578,
      "type": "SCALAR"
    }
  ],
  "asset": {
    "extras": {
      "author": "Louken (https://sketchfab.com/edvardthepro)",
      "license": "CC-BY-4.0 (http://creativecommons.org/licenses/by/4.0/)",
      "source": "https://sketchfab.com/3d-models/low-poly-android-phone-2034cfdf35d14186b06d4ca63b25dda0",
      "title": "Low Poly Android Phone"
    },
    "generator": "Sketchfab-16.54.0",
    "version": "2.0"
  },
  "bufferViews": [
    {
      "buffer": 0,
      "byteLength": 9792,
      "name": "floatBufferViews",
      "target": 34963
    },
    {
      "buffer": 0,
      "byteLength": 10432,
      "byteOffset": 9792,
      "byteStride": 8,
      "name": "floatBufferViews",
      "target": 34962
    },
    {
      "buffer": 0,
      "byteLength": 31296,
      "byteOffset": 20224,
      "byteStride": 12,
      "name": "floatBufferViews",
      "target": 34962
    }
  ],
  "buffers": [
    {
      "byteLength": 51520,
      "uri": "scene.bin"
    }
  ],
  "materials": [
    {
      "doubleSided": true,
      "name": "phone_base",
      "pbrMetallicRoughness": {
        "baseColorFactor": [
          0.0261492,
          0.0261492,
          0.0261492,
          1.0
        ],
        "metallicFactor": 0.0,
        "roughnessFactor": 0.9941528611242763
      }
    },
    {
      "doubleSided": true,
      "name": "phone_screen",
      "pbrMetallicRoughness": {
        "baseColorFactor": [
          0.0,
          0.0,
          0.0,
          1.0
        ],
        "metallicFactor": 0.0
      }
    },
    {
      "doubleSided": true,
      "name": "phone_cameras",
      "pbrMetallicRoughness": {
        "baseColorFactor": [
          0.0154596,
          0.0154596,
          0.0154596,
          1.0
        ],
        "metallicFactor": 0.0,
        "roughnessFactor": 0.9954192792175068
      }
    }
  ],
  "meshes": [
    {
      "name": "Phone_phone_base_0",
      "primitives": [
        {
          "attributes": {
            "NORMAL": 1,
            "POSITION": 0,
            "TEXCOORD_0": 2
          },
          "indices": 3,
          "material": 0,
          "mode": 4
        }
      ]
    },
    {
      "name": "Phone_phone_screen_0",
      "primitives": [
        {
          "attributes": {
            "NORMAL": 5,
            "POSITION": 4,
            "TEXCOORD_0": 6
          },
          "indices": 7,
          "material": 1,
          "mode": 4
        }
      ]
    },
    {
      "name": "Phone_phone_cameras_0",
      "primitives": [
        {
          "attributes": {
            "NORMAL": 9,
            "POSITION": 8,
            "TEXCOORD_0": 10
          },
          "indices": 11,
          "material": 2,
          "mode": 4
        }
      ]
    }
  ],
  "nodes": [
    {
      "children": [
        1
      ],
      "matrix": [
        1.0,
        0.0,
        0.0,
        0.0,
        0.0,
        2.220446049250313e-16,
        -1.0,
        0.0,
        0.0,
        1.0,
        2.220446049250313e-16,
        0.0,
        0.0,
        0.0,
        0.0,
        1.0
      ],
      "name": "Sketchfab_model"
    },
    {
      "children": [
        2
      ],
      "matrix": [
        0.009999999776482582,
        0.0,
        0.0,
        0.0,
        0.0,
        0.0,
        0.009999999776482582,
        0.0,
        0.0,
        -0.009999999776482582,
        0.0,
        0.0,
        0.0,
        0.0,
        0.0,
        1.0
      ],
      "name": "15769404b873420697a1ee9a15a23040.fbx"
    },
    {
      "children": [
        3
      ],
      "name": "RootNode"
    },
    {
      "children": [
        4,
        5,
        6
      ],
      "matrix": [
        100.0,
        0.0,
        0.0,
        0.0,
        0.0,
        -1.629206793918314e-05,
        -99.99999999999868,
        0.0,
        0.0,
        99.99999999999868,
        -1.629206793918314e-05,
        0.0,
        0.0,
        0.0,
        0.0,
        1.0
      ],
      "name": "Phone"
    },
    {
      "mesh": 0,
      "name": "Phone_phone_base_0"
    },
    {
      "mesh": 1,
      "name": "Phone_phone_screen_0"
    },
    {
      "mesh": 2,
      "name": "Phone_phone_cameras_0"
    }
  ],
  "scene": 0,
  "scenes": [
    {
      "name": "Sketchfab_Scene",
      "nodes": [
        0
      ]
    }
  ]
}
